<mxfile host="app.diagrams.net" agent="Mozilla/5.0 (Windows NT 10.0; Win64; x64) AppleWebKit/537.36 (KHTML, like Gecko) Chrome/135.0.0.0 Safari/537.36" version="26.2.13">
  <diagram name="Page-1" id="9361dd3d-8414-5efd-6122-117bd74ce7a7">
    <mxGraphModel dx="1923" dy="1358" grid="1" gridSize="10" guides="1" tooltips="1" connect="1" arrows="1" fold="1" page="0" pageScale="1.5" pageWidth="826" pageHeight="1169" background="none" math="0" shadow="0">
      <root>
        <mxCell id="0" />
        <mxCell id="1" parent="0" />
        <mxCell id="-S9vXnGe0rzKB2e50dyQ-141" value="Password Reset Flow" style="rounded=1;fontStyle=1;fillColor=#FFD966;strokeColor=none" vertex="1" parent="1">
          <mxGeometry x="70" y="-60" width="220" height="70" as="geometry" />
        </mxCell>
        <mxCell id="-S9vXnGe0rzKB2e50dyQ-194" value="clicks reset pw" style="edgeStyle=orthogonalEdgeStyle;rounded=0;orthogonalLoop=1;jettySize=auto;html=1;curved=0;" edge="1" parent="1">
          <mxGeometry x="-0.0689" y="10" relative="1" as="geometry">
            <mxPoint x="124.66666666666652" y="230" as="sourcePoint" />
            <mxPoint x="265" y="230" as="targetPoint" />
            <Array as="points">
              <mxPoint x="180" y="230" />
              <mxPoint x="180" y="230" />
            </Array>
            <mxPoint as="offset" />
          </mxGeometry>
        </mxCell>
        <mxCell id="-S9vXnGe0rzKB2e50dyQ-214" value="user logs in with new pw" style="edgeStyle=orthogonalEdgeStyle;rounded=0;orthogonalLoop=1;jettySize=auto;html=1;curved=0;" edge="1" parent="1" source="-S9vXnGe0rzKB2e50dyQ-147" target="-S9vXnGe0rzKB2e50dyQ-193">
          <mxGeometry x="-0.0689" y="10" relative="1" as="geometry">
            <Array as="points">
              <mxPoint x="170" y="580" />
              <mxPoint x="170" y="580" />
            </Array>
            <mxPoint as="offset" />
          </mxGeometry>
        </mxCell>
        <mxCell id="-S9vXnGe0rzKB2e50dyQ-215" value="views form" style="edgeStyle=orthogonalEdgeStyle;rounded=0;orthogonalLoop=1;jettySize=auto;html=1;curved=0;" edge="1" parent="1" source="-S9vXnGe0rzKB2e50dyQ-147" target="-S9vXnGe0rzKB2e50dyQ-193">
          <mxGeometry x="-0.0689" y="10" relative="1" as="geometry">
            <Array as="points">
              <mxPoint x="240" y="180" />
              <mxPoint x="240" y="180" />
            </Array>
            <mxPoint as="offset" />
          </mxGeometry>
        </mxCell>
        <mxCell id="-S9vXnGe0rzKB2e50dyQ-228" value="opens view" style="edgeStyle=orthogonalEdgeStyle;rounded=0;orthogonalLoop=1;jettySize=auto;html=1;curved=0;entryX=0.5;entryY=0.865;entryDx=0;entryDy=0;entryPerimeter=0;" edge="1" parent="1" source="-S9vXnGe0rzKB2e50dyQ-147" target="-S9vXnGe0rzKB2e50dyQ-193">
          <mxGeometry x="0.0403" y="10" relative="1" as="geometry">
            <Array as="points">
              <mxPoint x="160" y="550" />
              <mxPoint x="160" y="550" />
            </Array>
            <mxPoint as="offset" />
          </mxGeometry>
        </mxCell>
        <mxCell id="-S9vXnGe0rzKB2e50dyQ-147" value="" style="shape=umlLifeline;perimeter=lifelinePerimeter;whiteSpace=wrap;html=1;container=1;dropTarget=0;collapsible=0;recursiveResize=0;outlineConnect=0;portConstraint=eastwest;newEdgeStyle={&quot;curved&quot;:0,&quot;rounded&quot;:0};participant=umlActor;size=60;" vertex="1" parent="1">
          <mxGeometry x="110" y="60" width="30" height="660" as="geometry" />
        </mxCell>
        <mxCell id="-S9vXnGe0rzKB2e50dyQ-151" value="&lt;div&gt;Reset&lt;/div&gt;" style="shape=umlLifeline;perimeter=lifelinePerimeter;whiteSpace=wrap;html=1;container=1;dropTarget=0;collapsible=0;recursiveResize=0;outlineConnect=0;portConstraint=eastwest;newEdgeStyle={&quot;curved&quot;:0,&quot;rounded&quot;:0};fillColor=#97D077;" vertex="1" parent="1">
          <mxGeometry x="340" y="70" width="100" height="650" as="geometry" />
        </mxCell>
        <mxCell id="-S9vXnGe0rzKB2e50dyQ-195" value="" style="html=1;points=[[0,0,0,0,5],[0,1,0,0,-5],[1,0,0,0,5],[1,1,0,0,-5]];perimeter=orthogonalPerimeter;outlineConnect=0;targetShapes=umlLifeline;portConstraint=eastwest;newEdgeStyle={&quot;curved&quot;:0,&quot;rounded&quot;:0};" vertex="1" parent="-S9vXnGe0rzKB2e50dyQ-151">
          <mxGeometry x="45" y="100" width="10" height="380" as="geometry" />
        </mxCell>
        <mxCell id="-S9vXnGe0rzKB2e50dyQ-154" value="&lt;div&gt;Login&lt;/div&gt;" style="shape=umlLifeline;perimeter=lifelinePerimeter;whiteSpace=wrap;html=1;container=1;dropTarget=0;collapsible=0;recursiveResize=0;outlineConnect=0;portConstraint=eastwest;newEdgeStyle={&quot;curved&quot;:0,&quot;rounded&quot;:0};fillColor=#97D077;" vertex="1" parent="1">
          <mxGeometry x="220" y="70.61" width="100" height="649.39" as="geometry" />
        </mxCell>
        <mxCell id="-S9vXnGe0rzKB2e50dyQ-193" value="" style="html=1;points=[[0,0,0,0,5],[0,1,0,0,-5],[1,0,0,0,5],[1,1,0,0,-5]];perimeter=orthogonalPerimeter;outlineConnect=0;targetShapes=umlLifeline;portConstraint=eastwest;newEdgeStyle={&quot;curved&quot;:0,&quot;rounded&quot;:0};" vertex="1" parent="-S9vXnGe0rzKB2e50dyQ-154">
          <mxGeometry x="45" y="90" width="10" height="450" as="geometry" />
        </mxCell>
        <mxCell id="-S9vXnGe0rzKB2e50dyQ-156" value="Front" style="shape=umlFrame;whiteSpace=wrap;html=1;pointerEvents=0;" vertex="1" parent="1">
          <mxGeometry x="180" y="30" width="290" height="100" as="geometry" />
        </mxCell>
        <mxCell id="-S9vXnGe0rzKB2e50dyQ-157" value="&lt;div&gt;Auth Controller&lt;/div&gt;" style="shape=umlLifeline;perimeter=lifelinePerimeter;whiteSpace=wrap;html=1;container=1;dropTarget=0;collapsible=0;recursiveResize=0;outlineConnect=0;portConstraint=eastwest;newEdgeStyle={&quot;curved&quot;:0,&quot;rounded&quot;:0};fillColor=#EA6B66;" vertex="1" parent="1">
          <mxGeometry x="510" y="70" width="100" height="650" as="geometry" />
        </mxCell>
        <mxCell id="-S9vXnGe0rzKB2e50dyQ-199" value="" style="html=1;points=[[0,0,0,0,5],[0,1,0,0,-5],[1,0,0,0,5],[1,1,0,0,-5]];perimeter=orthogonalPerimeter;outlineConnect=0;targetShapes=umlLifeline;portConstraint=eastwest;newEdgeStyle={&quot;curved&quot;:0,&quot;rounded&quot;:0};" vertex="1" parent="-S9vXnGe0rzKB2e50dyQ-157">
          <mxGeometry x="45" y="100" width="10" height="420" as="geometry" />
        </mxCell>
        <mxCell id="-S9vXnGe0rzKB2e50dyQ-162" value="MongoDb" style="shape=umlLifeline;perimeter=lifelinePerimeter;whiteSpace=wrap;html=1;container=1;dropTarget=0;collapsible=0;recursiveResize=0;outlineConnect=0;portConstraint=eastwest;newEdgeStyle={&quot;curved&quot;:0,&quot;rounded&quot;:0};fillColor=#FFD966;" vertex="1" parent="1">
          <mxGeometry x="670" y="70.61" width="100" height="649.39" as="geometry" />
        </mxCell>
        <mxCell id="-S9vXnGe0rzKB2e50dyQ-201" value="" style="html=1;points=[[0,0,0,0,5],[0,1,0,0,-5],[1,0,0,0,5],[1,1,0,0,-5]];perimeter=orthogonalPerimeter;outlineConnect=0;targetShapes=umlLifeline;portConstraint=eastwest;newEdgeStyle={&quot;curved&quot;:0,&quot;rounded&quot;:0};" vertex="1" parent="-S9vXnGe0rzKB2e50dyQ-162">
          <mxGeometry x="45" y="109.39" width="10" height="440.61" as="geometry" />
        </mxCell>
        <mxCell id="-S9vXnGe0rzKB2e50dyQ-165" value="SendGrid" style="shape=umlLifeline;perimeter=lifelinePerimeter;whiteSpace=wrap;html=1;container=1;dropTarget=0;collapsible=0;recursiveResize=0;outlineConnect=0;portConstraint=eastwest;newEdgeStyle={&quot;curved&quot;:0,&quot;rounded&quot;:0};fillColor=#7EA6E0;" vertex="1" parent="1">
          <mxGeometry x="780" y="70.61" width="100" height="649.39" as="geometry" />
        </mxCell>
        <mxCell id="-S9vXnGe0rzKB2e50dyQ-198" value="" style="html=1;points=[[0,0,0,0,5],[0,1,0,0,-5],[1,0,0,0,5],[1,1,0,0,-5]];perimeter=orthogonalPerimeter;outlineConnect=0;targetShapes=umlLifeline;portConstraint=eastwest;newEdgeStyle={&quot;curved&quot;:0,&quot;rounded&quot;:0};" vertex="1" parent="-S9vXnGe0rzKB2e50dyQ-165">
          <mxGeometry x="45" y="169.39" width="10" height="130" as="geometry" />
        </mxCell>
        <mxCell id="-S9vXnGe0rzKB2e50dyQ-167" value="&lt;div&gt;Email Client&lt;/div&gt;" style="shape=umlLifeline;perimeter=lifelinePerimeter;whiteSpace=wrap;html=1;container=1;dropTarget=0;collapsible=0;recursiveResize=0;outlineConnect=0;portConstraint=eastwest;newEdgeStyle={&quot;curved&quot;:0,&quot;rounded&quot;:0};fillColor=#B5739D;" vertex="1" parent="1">
          <mxGeometry x="900" y="70.61" width="100" height="649.39" as="geometry" />
        </mxCell>
        <mxCell id="-S9vXnGe0rzKB2e50dyQ-206" value="" style="html=1;points=[[0,0,0,0,5],[0,1,0,0,-5],[1,0,0,0,5],[1,1,0,0,-5]];perimeter=orthogonalPerimeter;outlineConnect=0;targetShapes=umlLifeline;portConstraint=eastwest;newEdgeStyle={&quot;curved&quot;:0,&quot;rounded&quot;:0};" vertex="1" parent="-S9vXnGe0rzKB2e50dyQ-167">
          <mxGeometry x="45" y="170" width="10" height="210" as="geometry" />
        </mxCell>
        <mxCell id="-S9vXnGe0rzKB2e50dyQ-169" value="Back" style="shape=umlFrame;whiteSpace=wrap;html=1;pointerEvents=0;" vertex="1" parent="1">
          <mxGeometry x="490" y="30" width="140" height="100" as="geometry" />
        </mxCell>
        <mxCell id="-S9vXnGe0rzKB2e50dyQ-170" value="External" style="shape=umlFrame;whiteSpace=wrap;html=1;pointerEvents=0;" vertex="1" parent="1">
          <mxGeometry x="650" y="30" width="370" height="100" as="geometry" />
        </mxCell>
        <mxCell id="-S9vXnGe0rzKB2e50dyQ-197" value="types email" style="edgeStyle=orthogonalEdgeStyle;rounded=0;orthogonalLoop=1;jettySize=auto;html=1;curved=0;" edge="1" parent="1" source="-S9vXnGe0rzKB2e50dyQ-193" target="-S9vXnGe0rzKB2e50dyQ-195">
          <mxGeometry y="10" relative="1" as="geometry">
            <Array as="points">
              <mxPoint x="300" y="190" />
              <mxPoint x="300" y="190" />
            </Array>
            <mxPoint as="offset" />
          </mxGeometry>
        </mxCell>
        <mxCell id="-S9vXnGe0rzKB2e50dyQ-200" value="creates link" style="edgeStyle=orthogonalEdgeStyle;rounded=0;orthogonalLoop=1;jettySize=auto;html=1;curved=0;" edge="1" parent="1" source="-S9vXnGe0rzKB2e50dyQ-195" target="-S9vXnGe0rzKB2e50dyQ-199">
          <mxGeometry x="0.0625" y="10" relative="1" as="geometry">
            <Array as="points">
              <mxPoint x="520" y="210" />
              <mxPoint x="520" y="210" />
            </Array>
            <mxPoint as="offset" />
          </mxGeometry>
        </mxCell>
        <mxCell id="-S9vXnGe0rzKB2e50dyQ-203" value="sends email with link" style="edgeStyle=orthogonalEdgeStyle;rounded=0;orthogonalLoop=1;jettySize=auto;html=1;curved=0;" edge="1" parent="1" target="-S9vXnGe0rzKB2e50dyQ-198">
          <mxGeometry x="-0.3487" y="10" relative="1" as="geometry">
            <mxPoint x="565" y="290" as="sourcePoint" />
            <mxPoint x="825" y="291" as="targetPoint" />
            <Array as="points">
              <mxPoint x="565" y="340" />
            </Array>
            <mxPoint as="offset" />
          </mxGeometry>
        </mxCell>
        <mxCell id="-S9vXnGe0rzKB2e50dyQ-207" value="opens link" style="edgeStyle=orthogonalEdgeStyle;rounded=0;orthogonalLoop=1;jettySize=auto;html=1;curved=0;" edge="1" parent="1" source="-S9vXnGe0rzKB2e50dyQ-198" target="-S9vXnGe0rzKB2e50dyQ-206">
          <mxGeometry y="15" relative="1" as="geometry">
            <Array as="points">
              <mxPoint x="920" y="350" />
              <mxPoint x="920" y="350" />
            </Array>
            <mxPoint as="offset" />
          </mxGeometry>
        </mxCell>
        <mxCell id="-S9vXnGe0rzKB2e50dyQ-209" value="reset form with token" style="edgeStyle=orthogonalEdgeStyle;rounded=0;orthogonalLoop=1;jettySize=auto;html=1;curved=0;" edge="1" parent="1" source="-S9vXnGe0rzKB2e50dyQ-206" target="-S9vXnGe0rzKB2e50dyQ-195">
          <mxGeometry x="0.7636" y="-10" relative="1" as="geometry">
            <Array as="points">
              <mxPoint x="540" y="400" />
              <mxPoint x="540" y="400" />
            </Array>
            <mxPoint as="offset" />
          </mxGeometry>
        </mxCell>
        <mxCell id="-S9vXnGe0rzKB2e50dyQ-211" value="calls postreset" style="edgeStyle=orthogonalEdgeStyle;rounded=0;orthogonalLoop=1;jettySize=auto;html=1;curved=0;" edge="1" parent="1" source="-S9vXnGe0rzKB2e50dyQ-195" target="-S9vXnGe0rzKB2e50dyQ-199">
          <mxGeometry x="-0.0625" y="10" relative="1" as="geometry">
            <Array as="points">
              <mxPoint x="540" y="470" />
              <mxPoint x="540" y="470" />
            </Array>
            <mxPoint as="offset" />
          </mxGeometry>
        </mxCell>
        <mxCell id="-S9vXnGe0rzKB2e50dyQ-212" value="updates password" style="edgeStyle=orthogonalEdgeStyle;rounded=0;orthogonalLoop=1;jettySize=auto;html=1;curved=0;" edge="1" parent="1" source="-S9vXnGe0rzKB2e50dyQ-199" target="-S9vXnGe0rzKB2e50dyQ-201">
          <mxGeometry y="10" relative="1" as="geometry">
            <Array as="points">
              <mxPoint x="690" y="580" />
              <mxPoint x="690" y="580" />
            </Array>
            <mxPoint as="offset" />
          </mxGeometry>
        </mxCell>
        <mxCell id="-S9vXnGe0rzKB2e50dyQ-213" value="redirects to login" style="edgeStyle=orthogonalEdgeStyle;rounded=0;orthogonalLoop=1;jettySize=auto;html=1;curved=0;" edge="1" parent="1" source="-S9vXnGe0rzKB2e50dyQ-195" target="-S9vXnGe0rzKB2e50dyQ-154">
          <mxGeometry x="-0.0462" y="-16" relative="1" as="geometry">
            <Array as="points">
              <mxPoint x="370" y="536" />
              <mxPoint x="370" y="536" />
            </Array>
            <mxPoint as="offset" />
          </mxGeometry>
        </mxCell>
        <mxCell id="-S9vXnGe0rzKB2e50dyQ-210" value="types in new password" style="edgeStyle=orthogonalEdgeStyle;rounded=0;orthogonalLoop=1;jettySize=auto;html=1;curved=0;" edge="1" parent="1" source="-S9vXnGe0rzKB2e50dyQ-147" target="-S9vXnGe0rzKB2e50dyQ-195">
          <mxGeometry x="0.347" y="10" relative="1" as="geometry">
            <Array as="points">
              <mxPoint x="200" y="460" />
              <mxPoint x="200" y="460" />
            </Array>
            <mxPoint as="offset" />
          </mxGeometry>
        </mxCell>
        <mxCell id="-S9vXnGe0rzKB2e50dyQ-218" value="checks&amp;nbsp; email" style="edgeStyle=orthogonalEdgeStyle;rounded=0;orthogonalLoop=1;jettySize=auto;html=1;curved=0;" edge="1" parent="1" source="-S9vXnGe0rzKB2e50dyQ-199" target="-S9vXnGe0rzKB2e50dyQ-162">
          <mxGeometry x="-0.0291" y="10" relative="1" as="geometry">
            <Array as="points">
              <mxPoint x="640" y="220" />
              <mxPoint x="640" y="220" />
            </Array>
            <mxPoint as="offset" />
          </mxGeometry>
        </mxCell>
        <mxCell id="-S9vXnGe0rzKB2e50dyQ-222" value="user object" style="html=1;verticalAlign=bottom;endArrow=open;dashed=1;endSize=8;curved=0;rounded=0;" edge="1" parent="1">
          <mxGeometry relative="1" as="geometry">
            <mxPoint x="715" y="250" as="sourcePoint" />
            <mxPoint x="559.6666666666665" y="250" as="targetPoint" />
            <Array as="points">
              <mxPoint x="640" y="250" />
              <mxPoint x="640" y="250" />
            </Array>
          </mxGeometry>
        </mxCell>
        <mxCell id="-S9vXnGe0rzKB2e50dyQ-223" value="generates token with link" style="edgeStyle=orthogonalEdgeStyle;rounded=0;orthogonalLoop=1;jettySize=auto;html=1;curved=0;" edge="1" parent="1">
          <mxGeometry relative="1" as="geometry">
            <mxPoint x="565" y="280" as="sourcePoint" />
            <mxPoint x="565" y="300" as="targetPoint" />
            <Array as="points">
              <mxPoint x="565" y="270" />
              <mxPoint x="630" y="270" />
              <mxPoint x="630" y="300" />
            </Array>
          </mxGeometry>
        </mxCell>
        <mxCell id="-S9vXnGe0rzKB2e50dyQ-225" value="find user token" style="edgeStyle=orthogonalEdgeStyle;rounded=0;orthogonalLoop=1;jettySize=auto;html=1;curved=0;" edge="1" parent="1" source="-S9vXnGe0rzKB2e50dyQ-199" target="-S9vXnGe0rzKB2e50dyQ-201">
          <mxGeometry y="10" relative="1" as="geometry">
            <Array as="points">
              <mxPoint x="680" y="490" />
              <mxPoint x="680" y="490" />
            </Array>
            <mxPoint as="offset" />
          </mxGeometry>
        </mxCell>
        <mxCell id="-S9vXnGe0rzKB2e50dyQ-226" value="send user object" style="html=1;verticalAlign=bottom;endArrow=open;dashed=1;endSize=8;curved=0;rounded=0;" edge="1" parent="1" source="-S9vXnGe0rzKB2e50dyQ-201" target="-S9vXnGe0rzKB2e50dyQ-157">
          <mxGeometry relative="1" as="geometry">
            <Array as="points">
              <mxPoint x="690" y="520" />
              <mxPoint x="690" y="520" />
            </Array>
          </mxGeometry>
        </mxCell>
        <mxCell id="-S9vXnGe0rzKB2e50dyQ-229" value="updates password" style="edgeStyle=orthogonalEdgeStyle;rounded=0;orthogonalLoop=1;jettySize=auto;html=1;curved=0;" edge="1" parent="1" source="-S9vXnGe0rzKB2e50dyQ-193" target="-S9vXnGe0rzKB2e50dyQ-201">
          <mxGeometry x="0.6667" y="10" relative="1" as="geometry">
            <Array as="points">
              <mxPoint x="495" y="600" />
              <mxPoint x="495" y="610" />
            </Array>
            <mxPoint as="offset" />
          </mxGeometry>
        </mxCell>
      </root>
    </mxGraphModel>
  </diagram>
</mxfile>
